<svg xmlns="http://www.w3.org/2000/svg" viewBox="0 0 231.2 39"><path d="M58.8.1c-3.6.7-5.6 5.8-4.2 10.5 1.8 5.8 9.2 5.8 11 0C67.5 4.5 63.9-1 58.8.1m56 0c-3.6.7-5.6 5.8-4.2 10.5 1.8 5.8 9.2 5.8 11 0 1.9-6.1-1.7-11.6-6.8-10.5M0 .3v14.2h2V9.1L3.8 9C10.1 8.8 11 1.4 4.9.2 3.8.1 1.3-.1 0 .3zm27.3 0c-.1 1-.1 14.2-.1 14.2h2v-3.1c0-3.4-.1-3.2 1.4-3 1.4.2 4.5 6.1 4.5 6.1h2.3s-4.1-6.4-4-6.5c0 0 .4-.3.9-.6 2.7-1.7 2.1-6.1-1-7.1-.9-.3-4.9-.4-5.8-.2m55.5 2h4.6v12.4h2V2.1l4.7-.1.1-1.7H83m56 1.8h4.6v12.4h2V2.1l4.7-.1.1-1.7H139m32.2 7.9v6.3h2V8.1l4.4-7.8h-1.9s-3.4 6-3.5 6-3.5-6-3.5-6h-2.1m55.8 14.2h8.6l-.1-1.7-6.5-.1v-5h4.6V5.9h-4.6V2.1l6.5-.1.1-1.7h-8.6M61.8 2.2c3.4 1.7 2.7 9.8-.9 10.7-2.8.7-4.6-1.5-4.6-5.6 0-4.4 2.5-6.7 5.5-5.1m56 0c3.4 1.7 2.7 9.8-.9 10.7-2.8.7-4.6-1.5-4.6-5.6 0-4.4 2.5-6.7 5.5-5.1M5 2.2c3.5 1 2.2 5.1-1.6 5.1H2.1V4.7c0-1.4.1-2.6.1-2.7.2-.2 1.7-.1 2.8.2m27.9.2c1.1.6 1.3 2.2.6 3.4-.4.6-1.6.9-3.1.8l-1.1-.1-.1-2.1c0-1.1 0-2.2.1-2.4s2.8-.1 3.6.4M0 19.5l25.3.1c25.8.1 27 .1 34.7 1 19.8 2.2 33 8.1 37.7 16.8 1.4 2.7 1.4 2.9 1.4-8.1v-9.7h33v9.7c0 11 0 10.8 1.4 8.1 4.6-8.7 17.9-14.6 37.7-16.8 7.7-.8 8.8-.9 34.7-1l25.3-.1v-1.6H.2m118.3 3.9c-.8.3-2.3 1.6-2.3 2.1 0 .1 1.6 1.3 1.6 1.3l.7-.7c1.6-1.6 4.6-.8 4.5 1.2-.1 1.4-.6 2.2-5.6 8.6-2.3 2.9-2.9 3.6-2.9 4.1v.6h9.7l.4-2.2h-6.3l2.3-2.9c5.2-6.6 5.9-8.4 4.5-10.6-1-1.6-4.4-2.3-6.6-1.5m-8.2.9c-.8.7-3 2.1-4.6 2.9l-.3 2.3s3.3-1.6 3.4-1.6l-.9 12.6h2.6s1.6-17.1 1.6-17.2c-.1-.3-1 .2-1.8 1M195.2.4v14.1h2V9.1l1.9-.1c6.3-.2 7.2-7.6 1.1-8.8-1.2-.1-4.1-.2-5 .2zm5 1.8c3.5 1 2.2 5.1-1.6 5.1h-1.3V4.7c0-1.4.1-2.6.1-2.7.2-.2 1.7-.1 2.8.2" fill-rule="evenodd" clip-rule="evenodd" fill="#fff"/></svg>